<svg width="1140" height="16" viewBox="0 0 1140 16" fill="none" xmlns="http://www.w3.org/2000/svg">
<path d="M0.579545 4.21023V3.27273H7.125V4.21023H4.38068V12H3.32386V4.21023H0.579545ZM10.6719 12.1364C10.0412 12.1364 9.4972 11.9972 9.03981 11.7188C8.58527 11.4375 8.23442 11.0455 7.98726 10.5426C7.74294 10.0369 7.62078 9.44886 7.62078 8.77841C7.62078 8.10795 7.74294 7.51705 7.98726 7.00568C8.23442 6.49148 8.57817 6.09091 9.01851 5.80398C9.46169 5.5142 9.97873 5.36932 10.5696 5.36932C10.9106 5.36932 11.2472 5.42614 11.5796 5.53977C11.912 5.65341 12.2145 5.83807 12.4873 6.09375C12.76 6.34659 12.9773 6.68182 13.1392 7.09943C13.3012 7.51705 13.3821 8.03125 13.3821 8.64205V9.06818H8.33669V8.19886H12.3594C12.3594 7.82955 12.2856 7.5 12.1378 7.21023C11.9929 6.92045 11.7856 6.69176 11.5157 6.52415C11.2486 6.35653 10.9333 6.27273 10.5696 6.27273C10.1691 6.27273 9.82248 6.37216 9.52987 6.57102C9.2401 6.76705 9.01709 7.02273 8.86084 7.33807C8.70459 7.65341 8.62646 7.99148 8.62646 8.35227V8.93182C8.62646 9.42614 8.71169 9.84517 8.88214 10.1889C9.05544 10.5298 9.2955 10.7898 9.60231 10.9688C9.90913 11.1449 10.2657 11.233 10.6719 11.233C10.9361 11.233 11.1748 11.196 11.3878 11.1222C11.6037 11.0455 11.7898 10.9318 11.9461 10.7812C12.1023 10.6278 12.2231 10.4375 12.3083 10.2102L13.2799 10.483C13.1776 10.8125 13.0057 11.1023 12.7642 11.3523C12.5228 11.5994 12.2245 11.7926 11.8694 11.9318C11.5142 12.0682 11.1151 12.1364 10.6719 12.1364ZM15.1691 12V5.45455H16.1407V6.44318H16.2089C16.3282 6.11932 16.5441 5.85653 16.8566 5.65483C17.1691 5.45312 17.5214 5.35227 17.9134 5.35227C17.9873 5.35227 18.0796 5.35369 18.1904 5.35653C18.3012 5.35937 18.385 5.36364 18.4418 5.36932V6.39205C18.4078 6.38352 18.3296 6.37074 18.2075 6.35369C18.0881 6.33381 17.9617 6.32386 17.8282 6.32386C17.51 6.32386 17.2259 6.39062 16.9759 6.52415C16.7288 6.65483 16.5328 6.83665 16.3879 7.0696C16.2458 7.29972 16.1748 7.5625 16.1748 7.85795V12H15.1691ZM19.8911 12V5.45455H20.8627V6.47727H20.9479C21.0843 6.12784 21.3045 5.85653 21.6084 5.66335C21.9124 5.46733 22.2775 5.36932 22.7036 5.36932C23.1354 5.36932 23.4948 5.46733 23.7817 5.66335C24.0715 5.85653 24.2974 6.12784 24.4593 6.47727H24.5275C24.6951 6.1392 24.9465 5.87074 25.2817 5.67188C25.617 5.47017 26.0189 5.36932 26.4877 5.36932C27.0729 5.36932 27.5516 5.55256 27.9238 5.91903C28.2959 6.28267 28.482 6.84943 28.482 7.61932V12H27.4763V7.61932C27.4763 7.13636 27.3442 6.79119 27.08 6.58381C26.8158 6.37642 26.5047 6.27273 26.1468 6.27273C25.6866 6.27273 25.33 6.41193 25.0772 6.69034C24.8243 6.96591 24.6979 7.31534 24.6979 7.73864V12H23.6752V7.51705C23.6752 7.14489 23.5545 6.84517 23.313 6.6179C23.0715 6.38778 22.7604 6.27273 22.3797 6.27273C22.1184 6.27273 21.8741 6.34233 21.6468 6.48153C21.4224 6.62074 21.2405 6.81392 21.1013 7.06108C20.965 7.3054 20.8968 7.58807 20.8968 7.90909V12H19.8911ZM35.2143 6.92045L34.3109 7.17614C34.2541 7.02557 34.1703 6.87926 34.0595 6.73722C33.9515 6.59233 33.8038 6.47301 33.6163 6.37926C33.4288 6.28551 33.1887 6.23864 32.8961 6.23864C32.4955 6.23864 32.1617 6.33097 31.8947 6.51562C31.6305 6.69744 31.4984 6.92898 31.4984 7.21023C31.4984 7.46023 31.5893 7.65767 31.7711 7.80256C31.9529 7.94744 32.237 8.06818 32.6234 8.16477L33.595 8.40341C34.1802 8.54545 34.6163 8.76278 34.9032 9.0554C35.1901 9.34517 35.3336 9.71875 35.3336 10.1761C35.3336 10.5511 35.2257 10.8864 35.0098 11.1818C34.7967 11.4773 34.4984 11.7102 34.1149 11.8807C33.7313 12.0511 33.2853 12.1364 32.7768 12.1364C32.1092 12.1364 31.5566 11.9915 31.1191 11.7017C30.6816 11.4119 30.4046 10.9886 30.2882 10.4318L31.2427 10.1932C31.3336 10.5455 31.5055 10.8097 31.7583 10.9858C32.014 11.1619 32.3478 11.25 32.7598 11.25C33.2285 11.25 33.6007 11.1506 33.8762 10.9517C34.1546 10.75 34.2938 10.5085 34.2938 10.2273C34.2938 10 34.2143 9.80966 34.0552 9.65625C33.8961 9.5 33.6518 9.38352 33.3223 9.30682L32.2313 9.05114C31.6319 8.90909 31.1916 8.68892 30.9103 8.39062C30.6319 8.08949 30.4927 7.71307 30.4927 7.26136C30.4927 6.89205 30.5964 6.56534 30.8038 6.28125C31.014 5.99716 31.2995 5.77415 31.6603 5.61222C32.024 5.45028 32.4359 5.36932 32.8961 5.36932C33.5438 5.36932 34.0524 5.51136 34.4217 5.79545C34.7938 6.07955 35.058 6.45455 35.2143 6.92045ZM43.2083 12.1193C42.6345 12.1193 42.1402 12.0142 41.7254 11.804C41.3106 11.5937 40.991 11.3054 40.7666 10.9389C40.5421 10.5724 40.4299 10.1534 40.4299 9.68182C40.4299 9.31818 40.5066 8.99574 40.66 8.71449C40.8163 8.4304 41.0308 8.16761 41.3035 7.92614C41.5791 7.68182 41.8958 7.4375 42.2538 7.19318L43.5152 6.25568C43.7623 6.09375 43.9598 5.92045 44.1075 5.7358C44.2581 5.55114 44.3333 5.30966 44.3333 5.01136C44.3333 4.78977 44.2353 4.57528 44.0393 4.3679C43.8461 4.16051 43.5919 4.05682 43.2765 4.05682C43.0549 4.05682 42.8589 4.11364 42.6885 4.22727C42.5208 4.33807 42.3887 4.48011 42.2921 4.65341C42.1984 4.82386 42.1515 5 42.1515 5.18182C42.1515 5.38636 42.2069 5.59375 42.3177 5.80398C42.4314 6.01136 42.5748 6.22443 42.7481 6.44318C42.9243 6.65909 43.1061 6.88068 43.2936 7.10795L47.2993 12H46.089L42.7822 8.01136C42.4754 7.64205 42.197 7.30682 41.947 7.00568C41.697 6.70455 41.4981 6.40767 41.3504 6.11506C41.2027 5.82244 41.1288 5.50568 41.1288 5.16477C41.1288 4.77273 41.2154 4.42898 41.3887 4.13352C41.5649 3.83523 41.8106 3.60369 42.126 3.43892C42.4441 3.27131 42.8163 3.1875 43.2424 3.1875C43.6799 3.1875 44.0564 3.27273 44.3717 3.44318C44.687 3.6108 44.9299 3.83381 45.1004 4.11222C45.2708 4.38778 45.3561 4.6875 45.3561 5.01136C45.3561 5.42898 45.2524 5.79119 45.045 6.09801C44.8376 6.40483 44.5549 6.69034 44.197 6.95455L42.4583 8.25C42.0663 8.53977 41.8007 8.82102 41.6615 9.09375C41.5223 9.36648 41.4527 9.5625 41.4527 9.68182C41.4527 9.95455 41.5237 10.2088 41.6657 10.4446C41.8078 10.6804 42.0081 10.8707 42.2666 11.0156C42.5251 11.1605 42.8277 11.233 43.1743 11.233C43.5038 11.233 43.8248 11.1634 44.1373 11.0241C44.4498 10.8821 44.7325 10.6776 44.9853 10.4105C45.241 10.1435 45.4427 9.82244 45.5904 9.44744C45.741 9.07244 45.8163 8.65057 45.8163 8.18182H46.7879C46.7879 8.76136 46.7211 9.23437 46.5876 9.60085C46.4541 9.96733 46.3035 10.2543 46.1359 10.4616C45.9683 10.669 45.8333 10.8239 45.7311 10.9261C45.697 10.9687 45.6657 11.0114 45.6373 11.054C45.6089 11.0966 45.5777 11.1392 45.5436 11.1818C45.2623 11.4972 44.9072 11.733 44.4782 11.8892C44.0493 12.0426 43.626 12.1193 43.2083 12.1193ZM59.4609 6H58.4041C58.3416 5.69602 58.2322 5.42898 58.076 5.19886C57.9226 4.96875 57.7351 4.77557 57.5135 4.61932C57.2947 4.46023 57.0518 4.34091 56.7848 4.26136C56.5177 4.18182 56.2393 4.14205 55.9495 4.14205C55.4211 4.14205 54.9424 4.27557 54.5135 4.54261C54.0873 4.80966 53.7478 5.20312 53.495 5.72301C53.245 6.2429 53.12 6.88068 53.12 7.63636C53.12 8.39205 53.245 9.02983 53.495 9.54972C53.7478 10.0696 54.0873 10.4631 54.5135 10.7301C54.9424 10.9972 55.4211 11.1307 55.9495 11.1307C56.2393 11.1307 56.5177 11.0909 56.7848 11.0114C57.0518 10.9318 57.2947 10.8139 57.5135 10.6577C57.7351 10.4986 57.9226 10.304 58.076 10.0739C58.2322 9.84091 58.3416 9.57386 58.4041 9.27273H59.4609C59.3814 9.71875 59.2365 10.1179 59.0262 10.4702C58.816 10.8224 58.5547 11.1222 58.2422 11.3693C57.9297 11.6136 57.5788 11.7997 57.1896 11.9276C56.8032 12.0554 56.3899 12.1193 55.9495 12.1193C55.2052 12.1193 54.5433 11.9375 53.9637 11.5739C53.3842 11.2102 52.9282 10.6932 52.5959 10.0227C52.2635 9.35227 52.0973 8.55682 52.0973 7.63636C52.0973 6.71591 52.2635 5.92045 52.5959 5.25C52.9282 4.57955 53.3842 4.0625 53.9637 3.69886C54.5433 3.33523 55.2052 3.15341 55.9495 3.15341C56.3899 3.15341 56.8032 3.21733 57.1896 3.34517C57.5788 3.47301 57.9297 3.66051 58.2422 3.90767C58.5547 4.15199 58.816 4.45028 59.0262 4.80256C59.2365 5.15199 59.3814 5.55114 59.4609 6ZM63.9485 12.1364C63.3576 12.1364 62.8391 11.9957 62.3931 11.7145C61.9499 11.4332 61.6033 11.0398 61.3533 10.5341C61.1062 10.0284 60.9826 9.4375 60.9826 8.76136C60.9826 8.07955 61.1062 7.48437 61.3533 6.97585C61.6033 6.46733 61.9499 6.07244 62.3931 5.79119C62.8391 5.50994 63.3576 5.36932 63.9485 5.36932C64.5394 5.36932 65.0565 5.50994 65.4997 5.79119C65.9457 6.07244 66.2923 6.46733 66.5394 6.97585C66.7894 7.48437 66.9144 8.07955 66.9144 8.76136C66.9144 9.4375 66.7894 10.0284 66.5394 10.5341C66.2923 11.0398 65.9457 11.4332 65.4997 11.7145C65.0565 11.9957 64.5394 12.1364 63.9485 12.1364ZM63.9485 11.233C64.3974 11.233 64.7667 11.1179 65.0565 10.8878C65.3462 10.6577 65.5607 10.3551 65.6999 9.98011C65.8391 9.60511 65.9087 9.19886 65.9087 8.76136C65.9087 8.32386 65.8391 7.91619 65.6999 7.53835C65.5607 7.16051 65.3462 6.85511 65.0565 6.62216C64.7667 6.3892 64.3974 6.27273 63.9485 6.27273C63.4997 6.27273 63.1303 6.3892 62.8406 6.62216C62.5508 6.85511 62.3363 7.16051 62.1971 7.53835C62.0579 7.91619 61.9883 8.32386 61.9883 8.76136C61.9883 9.19886 62.0579 9.60511 62.1971 9.98011C62.3363 10.3551 62.5508 10.6577 62.8406 10.8878C63.1303 11.1179 63.4997 11.233 63.9485 11.233ZM69.7124 8.0625V12H68.7067V5.45455H69.6783V6.47727H69.7635C69.917 6.14489 70.1499 5.87784 70.4624 5.67614C70.7749 5.47159 71.1783 5.36932 71.6726 5.36932C72.1158 5.36932 72.5036 5.46023 72.836 5.64205C73.1684 5.82102 73.4269 6.09375 73.6116 6.46023C73.7962 6.82386 73.8885 7.28409 73.8885 7.84091V12H72.8829V7.90909C72.8829 7.39489 72.7493 6.99432 72.4823 6.70739C72.2152 6.41761 71.8488 6.27273 71.3829 6.27273C71.0618 6.27273 70.7749 6.34233 70.5221 6.48153C70.2721 6.62074 70.0746 6.82386 69.9297 7.09091C69.7848 7.35795 69.7124 7.68182 69.7124 8.0625ZM78.455 12.1364C77.9095 12.1364 77.428 11.9986 77.0104 11.723C76.5928 11.4446 76.2661 11.0526 76.0303 10.5469C75.7945 10.0384 75.6766 9.4375 75.6766 8.74432C75.6766 8.05682 75.7945 7.46023 76.0303 6.95455C76.2661 6.44886 76.5942 6.05824 77.0147 5.78267C77.4351 5.5071 77.9209 5.36932 78.472 5.36932C78.8982 5.36932 79.2348 5.44034 79.482 5.58239C79.732 5.72159 79.9223 5.88068 80.053 6.05966C80.1865 6.2358 80.2902 6.38068 80.3641 6.49432H80.4493V3.27273H81.455V12H80.4834V10.9943H80.3641C80.2902 11.1136 80.1851 11.2642 80.0487 11.446C79.9124 11.625 79.7178 11.7855 79.4649 11.9276C79.2121 12.0668 78.8755 12.1364 78.455 12.1364ZM78.5914 11.233C78.9948 11.233 79.3357 11.1278 79.6141 10.9176C79.8925 10.7045 80.1041 10.4105 80.249 10.0355C80.3939 9.65767 80.4664 9.22159 80.4664 8.72727C80.4664 8.23864 80.3953 7.81108 80.2533 7.4446C80.1112 7.07528 79.901 6.78835 79.6226 6.58381C79.3442 6.37642 79.0005 6.27273 78.5914 6.27273C78.1652 6.27273 77.8101 6.3821 77.526 6.60085C77.2448 6.81676 77.0331 7.1108 76.8911 7.48295C76.7519 7.85227 76.6823 8.26705 76.6823 8.72727C76.6823 9.19318 76.7533 9.61648 76.8953 9.99716C77.0402 10.375 77.2533 10.6761 77.5345 10.9006C77.8186 11.1222 78.1709 11.233 78.5914 11.233ZM83.6937 12V5.45455H84.6994V12H83.6937ZM84.205 4.36364C84.009 4.36364 83.84 4.29688 83.6979 4.16335C83.5587 4.02983 83.4891 3.86932 83.4891 3.68182C83.4891 3.49432 83.5587 3.33381 83.6979 3.20028C83.84 3.06676 84.009 3 84.205 3C84.4011 3 84.5687 3.06676 84.7079 3.20028C84.8499 3.33381 84.9209 3.49432 84.9209 3.68182C84.9209 3.86932 84.8499 4.02983 84.7079 4.16335C84.5687 4.29688 84.4011 4.36364 84.205 4.36364ZM89.6451 5.45455V6.30682H86.253V5.45455H89.6451ZM87.2417 3.88636H88.2473V10.125C88.2473 10.4091 88.2885 10.6222 88.3709 10.7642C88.4561 10.9034 88.5641 10.9972 88.6948 11.0455C88.8283 11.0909 88.9689 11.1136 89.1167 11.1136C89.2274 11.1136 89.3184 11.108 89.3894 11.0966C89.4604 11.0824 89.5172 11.071 89.5598 11.0625L89.7644 11.9659C89.6962 11.9915 89.601 12.017 89.4789 12.0426C89.3567 12.071 89.2019 12.0852 89.0144 12.0852C88.7303 12.0852 88.4519 12.0241 88.1792 11.902C87.9093 11.7798 87.6848 11.5938 87.5059 11.3438C87.3297 11.0938 87.2417 10.7784 87.2417 10.3977V3.88636ZM91.415 12V5.45455H92.4207V12H91.415ZM91.9263 4.36364C91.7303 4.36364 91.5613 4.29688 91.4192 4.16335C91.28 4.02983 91.2104 3.86932 91.2104 3.68182C91.2104 3.49432 91.28 3.33381 91.4192 3.20028C91.5613 3.06676 91.7303 3 91.9263 3C92.1224 3 92.29 3.06676 92.4292 3.20028C92.5712 3.33381 92.6423 3.49432 92.6423 3.68182C92.6423 3.86932 92.5712 4.02983 92.4292 4.16335C92.29 4.29688 92.1224 4.36364 91.9263 4.36364ZM97.1789 12.1364C96.588 12.1364 96.0695 11.9957 95.6235 11.7145C95.1803 11.4332 94.8337 11.0398 94.5837 10.5341C94.3365 10.0284 94.213 9.4375 94.213 8.76136C94.213 8.07955 94.3365 7.48437 94.5837 6.97585C94.8337 6.46733 95.1803 6.07244 95.6235 5.79119C96.0695 5.50994 96.588 5.36932 97.1789 5.36932C97.7698 5.36932 98.2868 5.50994 98.73 5.79119C99.176 6.07244 99.5226 6.46733 99.7698 6.97585C100.02 7.48437 100.145 8.07955 100.145 8.76136C100.145 9.4375 100.02 10.0284 99.7698 10.5341C99.5226 11.0398 99.176 11.4332 98.73 11.7145C98.2868 11.9957 97.7698 12.1364 97.1789 12.1364ZM97.1789 11.233C97.6277 11.233 97.9971 11.1179 98.2868 10.8878C98.5766 10.6577 98.7911 10.3551 98.9303 9.98011C99.0695 9.60511 99.1391 9.19886 99.1391 8.76136C99.1391 8.32386 99.0695 7.91619 98.9303 7.53835C98.7911 7.16051 98.5766 6.85511 98.2868 6.62216C97.9971 6.3892 97.6277 6.27273 97.1789 6.27273C96.73 6.27273 96.3607 6.3892 96.0709 6.62216C95.7811 6.85511 95.5667 7.16051 95.4275 7.53835C95.2882 7.91619 95.2186 8.32386 95.2186 8.76136C95.2186 9.19886 95.2882 9.60511 95.4275 9.98011C95.5667 10.3551 95.7811 10.6577 96.0709 10.8878C96.3607 11.1179 96.73 11.233 97.1789 11.233ZM102.943 8.0625V12H101.937V5.45455H102.909V6.47727H102.994C103.147 6.14489 103.38 5.87784 103.693 5.67614C104.005 5.47159 104.409 5.36932 104.903 5.36932C105.346 5.36932 105.734 5.46023 106.066 5.64205C106.399 5.82102 106.657 6.09375 106.842 6.46023C107.027 6.82386 107.119 7.28409 107.119 7.84091V12H106.113V7.90909C106.113 7.39489 105.98 6.99432 105.713 6.70739C105.446 6.41761 105.079 6.27273 104.613 6.27273C104.292 6.27273 104.005 6.34233 103.752 6.48153C103.502 6.62074 103.305 6.82386 103.16 7.09091C103.015 7.35795 102.943 7.68182 102.943 8.0625ZM113.85 6.92045L112.947 7.17614C112.89 7.02557 112.806 6.87926 112.695 6.73722C112.587 6.59233 112.44 6.47301 112.252 6.37926C112.065 6.28551 111.825 6.23864 111.532 6.23864C111.131 6.23864 110.798 6.33097 110.531 6.51562C110.266 6.69744 110.134 6.92898 110.134 7.21023C110.134 7.46023 110.225 7.65767 110.407 7.80256C110.589 7.94744 110.873 8.06818 111.259 8.16477L112.231 8.40341C112.816 8.54545 113.252 8.76278 113.539 9.0554C113.826 9.34517 113.969 9.71875 113.969 10.1761C113.969 10.5511 113.861 10.8864 113.646 11.1818C113.433 11.4773 113.134 11.7102 112.751 11.8807C112.367 12.0511 111.921 12.1364 111.413 12.1364C110.745 12.1364 110.192 11.9915 109.755 11.7017C109.317 11.4119 109.04 10.9886 108.924 10.4318L109.879 10.1932C109.969 10.5455 110.141 10.8097 110.394 10.9858C110.65 11.1619 110.984 11.25 111.396 11.25C111.864 11.25 112.236 11.1506 112.512 10.9517C112.79 10.75 112.93 10.5085 112.93 10.2273C112.93 10 112.85 9.80966 112.691 9.65625C112.532 9.5 112.288 9.38352 111.958 9.30682L110.867 9.05114C110.268 8.90909 109.827 8.68892 109.546 8.39062C109.268 8.08949 109.129 7.71307 109.129 7.26136C109.129 6.89205 109.232 6.56534 109.44 6.28125C109.65 5.99716 109.935 5.77415 110.296 5.61222C110.66 5.45028 111.072 5.36932 111.532 5.36932C112.18 5.36932 112.688 5.51136 113.058 5.79545C113.43 6.07955 113.694 6.45455 113.85 6.92045ZM135.367 0.460227V14.8125H134.515V0.460227H135.367ZM156.381 12V3.27273H159.33C160.015 3.27273 160.574 3.39631 161.009 3.64347C161.446 3.88778 161.77 4.21875 161.981 4.63636C162.191 5.05398 162.296 5.51989 162.296 6.03409C162.296 6.5483 162.191 7.01562 161.981 7.43608C161.773 7.85653 161.452 8.19176 161.018 8.44176C160.583 8.68892 160.026 8.8125 159.347 8.8125H157.233V7.875H159.313C159.782 7.875 160.158 7.79403 160.442 7.6321C160.726 7.47017 160.932 7.25142 161.06 6.97585C161.191 6.69744 161.256 6.38352 161.256 6.03409C161.256 5.68466 161.191 5.37216 161.06 5.09659C160.932 4.82102 160.725 4.60511 160.438 4.44886C160.151 4.28977 159.77 4.21023 159.296 4.21023H157.438V12H156.381ZM164.119 12V5.45455H165.091V6.44318H165.159C165.278 6.11932 165.494 5.85653 165.807 5.65483C166.119 5.45312 166.471 5.35227 166.863 5.35227C166.937 5.35227 167.03 5.35369 167.14 5.35653C167.251 5.35937 167.335 5.36364 167.392 5.36932V6.39205C167.358 6.38352 167.28 6.37074 167.157 6.35369C167.038 6.33381 166.912 6.32386 166.778 6.32386C166.46 6.32386 166.176 6.39062 165.926 6.52415C165.679 6.65483 165.483 6.83665 165.338 7.0696C165.196 7.29972 165.125 7.5625 165.125 7.85795V12H164.119ZM168.841 12V5.45455H169.847V12H168.841ZM169.352 4.36364C169.156 4.36364 168.987 4.29688 168.845 4.16335C168.706 4.02983 168.637 3.86932 168.637 3.68182C168.637 3.49432 168.706 3.33381 168.845 3.20028C168.987 3.06676 169.156 3 169.352 3C169.548 3 169.716 3.06676 169.855 3.20028C169.997 3.33381 170.068 3.49432 170.068 3.68182C170.068 3.86932 169.997 4.02983 169.855 4.16335C169.716 4.29688 169.548 4.36364 169.352 4.36364ZM177.298 5.45455L174.878 12H173.855L171.435 5.45455H172.525L174.332 10.6705H174.4L176.207 5.45455H177.298ZM180.61 12.1534C180.195 12.1534 179.818 12.0753 179.48 11.919C179.142 11.7599 178.874 11.5312 178.675 11.233C178.476 10.9318 178.377 10.5682 178.377 10.142C178.377 9.76705 178.451 9.46307 178.598 9.23011C178.746 8.99432 178.943 8.80966 179.191 8.67614C179.438 8.54261 179.711 8.44318 180.009 8.37784C180.31 8.30966 180.612 8.25568 180.916 8.21591C181.314 8.16477 181.637 8.12642 181.884 8.10085C182.134 8.07244 182.316 8.02557 182.429 7.96023C182.546 7.89489 182.604 7.78125 182.604 7.61932V7.58523C182.604 7.16477 182.489 6.83807 182.259 6.60511C182.032 6.37216 181.686 6.25568 181.223 6.25568C180.743 6.25568 180.367 6.3608 180.094 6.57102C179.821 6.78125 179.63 7.00568 179.519 7.24432L178.564 6.90341C178.735 6.50568 178.962 6.19602 179.246 5.97443C179.533 5.75 179.845 5.59375 180.184 5.50568C180.524 5.41477 180.86 5.36932 181.189 5.36932C181.399 5.36932 181.641 5.39489 181.914 5.44602C182.189 5.49432 182.455 5.59517 182.711 5.74858C182.969 5.90199 183.184 6.13352 183.354 6.44318C183.524 6.75284 183.61 7.16761 183.61 7.6875V12H182.604V11.1136H182.553C182.485 11.2557 182.371 11.4077 182.212 11.5696C182.053 11.7315 181.841 11.8693 181.577 11.983C181.313 12.0966 180.99 12.1534 180.61 12.1534ZM180.763 11.25C181.161 11.25 181.496 11.1719 181.769 11.0156C182.044 10.8594 182.252 10.6577 182.391 10.4105C182.533 10.1634 182.604 9.90341 182.604 9.63068V8.71023C182.561 8.76136 182.468 8.80824 182.323 8.85085C182.181 8.89062 182.016 8.92614 181.828 8.95739C181.644 8.9858 181.463 9.01136 181.287 9.03409C181.114 9.05398 180.973 9.07102 180.865 9.08523C180.604 9.11932 180.36 9.17472 180.132 9.25142C179.908 9.32528 179.726 9.4375 179.587 9.58807C179.451 9.7358 179.382 9.9375 179.382 10.1932C179.382 10.5426 179.512 10.8068 179.77 10.9858C180.032 11.1619 180.362 11.25 180.763 11.25ZM188.361 12.1364C187.748 12.1364 187.219 11.9915 186.776 11.7017C186.333 11.4119 185.992 11.0128 185.754 10.5043C185.515 9.99574 185.396 9.41477 185.396 8.76136C185.396 8.09659 185.518 7.50994 185.762 7.00142C186.009 6.49006 186.353 6.09091 186.793 5.80398C187.236 5.5142 187.754 5.36932 188.344 5.36932C188.805 5.36932 189.219 5.45455 189.589 5.625C189.958 5.79545 190.261 6.03409 190.496 6.34091C190.732 6.64773 190.879 7.00568 190.935 7.41477H189.93C189.853 7.11648 189.682 6.85227 189.418 6.62216C189.157 6.3892 188.805 6.27273 188.361 6.27273C187.969 6.27273 187.626 6.375 187.33 6.57955C187.038 6.78125 186.809 7.06676 186.644 7.43608C186.482 7.80256 186.401 8.23295 186.401 8.72727C186.401 9.23295 186.481 9.6733 186.64 10.0483C186.802 10.4233 187.029 10.7145 187.322 10.9219C187.617 11.1293 187.964 11.233 188.361 11.233C188.623 11.233 188.86 11.1875 189.073 11.0966C189.286 11.0057 189.467 10.875 189.614 10.7045C189.762 10.5341 189.867 10.3295 189.93 10.0909H190.935C190.879 10.4773 190.738 10.8253 190.513 11.1349C190.292 11.4418 189.998 11.6861 189.631 11.8679C189.268 12.0469 188.844 12.1364 188.361 12.1364ZM193.31 14.4545C193.14 14.4545 192.988 14.4403 192.854 14.4119C192.721 14.3864 192.629 14.3608 192.577 14.3352L192.833 13.4489C193.077 13.5114 193.293 13.5341 193.481 13.517C193.668 13.5 193.835 13.4162 193.979 13.2656C194.127 13.1179 194.262 12.8778 194.384 12.5455L194.572 12.0341L192.151 5.45455H193.242L195.049 10.6705H195.117L196.924 5.45455H198.015L195.237 12.9545C195.112 13.2926 194.957 13.5724 194.772 13.794C194.587 14.0185 194.373 14.1847 194.129 14.2926C193.887 14.4006 193.614 14.4545 193.31 14.4545ZM203.368 12V3.27273H206.317C207.001 3.27273 207.561 3.39631 207.996 3.64347C208.433 3.88778 208.757 4.21875 208.967 4.63636C209.178 5.05398 209.283 5.51989 209.283 6.03409C209.283 6.5483 209.178 7.01562 208.967 7.43608C208.76 7.85653 208.439 8.19176 208.004 8.44176C207.57 8.68892 207.013 8.8125 206.334 8.8125H204.22V7.875H206.3C206.769 7.875 207.145 7.79403 207.429 7.6321C207.713 7.47017 207.919 7.25142 208.047 6.97585C208.178 6.69744 208.243 6.38352 208.243 6.03409C208.243 5.68466 208.178 5.37216 208.047 5.09659C207.919 4.82102 207.712 4.60511 207.425 4.44886C207.138 4.28977 206.757 4.21023 206.283 4.21023H204.425V12H203.368ZM213.695 12.1364C213.104 12.1364 212.585 11.9957 212.139 11.7145C211.696 11.4332 211.35 11.0398 211.1 10.5341C210.852 10.0284 210.729 9.4375 210.729 8.76136C210.729 8.07955 210.852 7.48437 211.1 6.97585C211.35 6.46733 211.696 6.07244 212.139 5.79119C212.585 5.50994 213.104 5.36932 213.695 5.36932C214.286 5.36932 214.803 5.50994 215.246 5.79119C215.692 6.07244 216.038 6.46733 216.286 6.97585C216.536 7.48437 216.661 8.07955 216.661 8.76136C216.661 9.4375 216.536 10.0284 216.286 10.5341C216.038 11.0398 215.692 11.4332 215.246 11.7145C214.803 11.9957 214.286 12.1364 213.695 12.1364ZM213.695 11.233C214.144 11.233 214.513 11.1179 214.803 10.8878C215.092 10.6577 215.307 10.3551 215.446 9.98011C215.585 9.60511 215.655 9.19886 215.655 8.76136C215.655 8.32386 215.585 7.91619 215.446 7.53835C215.307 7.16051 215.092 6.85511 214.803 6.62216C214.513 6.3892 214.144 6.27273 213.695 6.27273C213.246 6.27273 212.877 6.3892 212.587 6.62216C212.297 6.85511 212.083 7.16051 211.943 7.53835C211.804 7.91619 211.734 8.32386 211.734 8.76136C211.734 9.19886 211.804 9.60511 211.943 9.98011C212.083 10.3551 212.297 10.6577 212.587 10.8878C212.877 11.1179 213.246 11.233 213.695 11.233ZM219.459 3.27273V12H218.453V3.27273H219.459ZM221.558 12V5.45455H222.563V12H221.558ZM222.069 4.36364C221.873 4.36364 221.704 4.29688 221.562 4.16335C221.423 4.02983 221.353 3.86932 221.353 3.68182C221.353 3.49432 221.423 3.33381 221.562 3.20028C221.704 3.06676 221.873 3 222.069 3C222.265 3 222.433 3.06676 222.572 3.20028C222.714 3.33381 222.785 3.49432 222.785 3.68182C222.785 3.86932 222.714 4.02983 222.572 4.16335C222.433 4.29688 222.265 4.36364 222.069 4.36364ZM227.322 12.1364C226.708 12.1364 226.18 11.9915 225.736 11.7017C225.293 11.4119 224.952 11.0128 224.714 10.5043C224.475 9.99574 224.356 9.41477 224.356 8.76136C224.356 8.09659 224.478 7.50994 224.722 7.00142C224.969 6.49006 225.313 6.09091 225.753 5.80398C226.197 5.5142 226.714 5.36932 227.305 5.36932C227.765 5.36932 228.18 5.45455 228.549 5.625C228.918 5.79545 229.221 6.03409 229.457 6.34091C229.692 6.64773 229.839 7.00568 229.895 7.41477H228.89C228.813 7.11648 228.643 6.85227 228.378 6.62216C228.117 6.3892 227.765 6.27273 227.322 6.27273C226.93 6.27273 226.586 6.375 226.29 6.57955C225.998 6.78125 225.769 7.06676 225.604 7.43608C225.442 7.80256 225.361 8.23295 225.361 8.72727C225.361 9.23295 225.441 9.6733 225.6 10.0483C225.762 10.4233 225.989 10.7145 226.282 10.9219C226.577 11.1293 226.924 11.233 227.322 11.233C227.583 11.233 227.82 11.1875 228.033 11.0966C228.246 11.0057 228.427 10.875 228.574 10.7045C228.722 10.5341 228.827 10.3295 228.89 10.0909H229.895C229.839 10.4773 229.698 10.8253 229.474 11.1349C229.252 11.4418 228.958 11.6861 228.592 11.8679C228.228 12.0469 227.805 12.1364 227.322 12.1364ZM232.271 14.4545C232.1 14.4545 231.948 14.4403 231.815 14.4119C231.681 14.3864 231.589 14.3608 231.538 14.3352L231.793 13.4489C232.038 13.5114 232.253 13.5341 232.441 13.517C232.628 13.5 232.795 13.4162 232.94 13.2656C233.087 13.1179 233.222 12.8778 233.344 12.5455L233.532 12.0341L231.111 5.45455H232.202L234.009 10.6705H234.077L235.884 5.45455H236.975L234.197 12.9545C234.072 13.2926 233.917 13.5724 233.732 13.794C233.548 14.0185 233.333 14.1847 233.089 14.2926C232.847 14.4006 232.575 14.4545 232.271 14.4545ZM258.186 0.460227V14.8125H257.334V0.460227H258.186ZM279.558 12H278.45L281.655 3.27273H282.746L285.95 12H284.842L282.234 4.65341H282.166L279.558 12ZM279.967 8.59091H284.433V9.52841H279.967V8.59091ZM290.09 12.1364C289.476 12.1364 288.948 11.9915 288.504 11.7017C288.061 11.4119 287.72 11.0128 287.482 10.5043C287.243 9.99574 287.124 9.41477 287.124 8.76136C287.124 8.09659 287.246 7.50994 287.49 7.00142C287.737 6.49006 288.081 6.09091 288.521 5.80398C288.965 5.5142 289.482 5.36932 290.073 5.36932C290.533 5.36932 290.948 5.45455 291.317 5.625C291.686 5.79545 291.989 6.03409 292.225 6.34091C292.46 6.64773 292.607 7.00568 292.663 7.41477H291.658C291.581 7.11648 291.411 6.85227 291.146 6.62216C290.885 6.3892 290.533 6.27273 290.09 6.27273C289.698 6.27273 289.354 6.375 289.058 6.57955C288.766 6.78125 288.537 7.06676 288.372 7.43608C288.21 7.80256 288.129 8.23295 288.129 8.72727C288.129 9.23295 288.209 9.6733 288.368 10.0483C288.53 10.4233 288.757 10.7145 289.05 10.9219C289.345 11.1293 289.692 11.233 290.09 11.233C290.351 11.233 290.588 11.1875 290.801 11.0966C291.014 11.0057 291.195 10.875 291.342 10.7045C291.49 10.5341 291.595 10.3295 291.658 10.0909H292.663C292.607 10.4773 292.466 10.8253 292.242 11.1349C292.02 11.4418 291.726 11.6861 291.359 11.8679C290.996 12.0469 290.573 12.1364 290.09 12.1364ZM297.05 12.1364C296.436 12.1364 295.908 11.9915 295.465 11.7017C295.021 11.4119 294.681 11.0128 294.442 10.5043C294.203 9.99574 294.084 9.41477 294.084 8.76136C294.084 8.09659 294.206 7.50994 294.45 7.00142C294.698 6.49006 295.041 6.09091 295.482 5.80398C295.925 5.5142 296.442 5.36932 297.033 5.36932C297.493 5.36932 297.908 5.45455 298.277 5.625C298.646 5.79545 298.949 6.03409 299.185 6.34091C299.421 6.64773 299.567 7.00568 299.624 7.41477H298.618C298.541 7.11648 298.371 6.85227 298.107 6.62216C297.845 6.3892 297.493 6.27273 297.05 6.27273C296.658 6.27273 296.314 6.375 296.019 6.57955C295.726 6.78125 295.497 7.06676 295.333 7.43608C295.171 7.80256 295.09 8.23295 295.09 8.72727C295.09 9.23295 295.169 9.6733 295.328 10.0483C295.49 10.4233 295.717 10.7145 296.01 10.9219C296.306 11.1293 296.652 11.233 297.05 11.233C297.311 11.233 297.548 11.1875 297.761 11.0966C297.975 11.0057 298.155 10.875 298.303 10.7045C298.45 10.5341 298.556 10.3295 298.618 10.0909H299.624C299.567 10.4773 299.426 10.8253 299.202 11.1349C298.98 11.4418 298.686 11.6861 298.32 11.8679C297.956 12.0469 297.533 12.1364 297.05 12.1364ZM304.095 12.1364C303.465 12.1364 302.921 11.9972 302.463 11.7188C302.009 11.4375 301.658 11.0455 301.411 10.5426C301.166 10.0369 301.044 9.44886 301.044 8.77841C301.044 8.10795 301.166 7.51705 301.411 7.00568C301.658 6.49148 302.002 6.09091 302.442 5.80398C302.885 5.5142 303.402 5.36932 303.993 5.36932C304.334 5.36932 304.671 5.42614 305.003 5.53977C305.335 5.65341 305.638 5.83807 305.911 6.09375C306.183 6.34659 306.401 6.68182 306.563 7.09943C306.725 7.51705 306.806 8.03125 306.806 8.64205V9.06818H301.76V8.19886H305.783C305.783 7.82955 305.709 7.5 305.561 7.21023C305.416 6.92045 305.209 6.69176 304.939 6.52415C304.672 6.35653 304.357 6.27273 303.993 6.27273C303.593 6.27273 303.246 6.37216 302.953 6.57102C302.664 6.76705 302.441 7.02273 302.284 7.33807C302.128 7.65341 302.05 7.99148 302.05 8.35227V8.93182C302.05 9.42614 302.135 9.84517 302.306 10.1889C302.479 10.5298 302.719 10.7898 303.026 10.9688C303.333 11.1449 303.689 11.233 304.095 11.233C304.36 11.233 304.598 11.196 304.811 11.1222C305.027 11.0455 305.213 10.9318 305.369 10.7812C305.526 10.6278 305.646 10.4375 305.732 10.2102L306.703 10.483C306.601 10.8125 306.429 11.1023 306.188 11.3523C305.946 11.5994 305.648 11.7926 305.293 11.9318C304.938 12.0682 304.539 12.1364 304.095 12.1364ZM313.229 6.92045L312.325 7.17614C312.269 7.02557 312.185 6.87926 312.074 6.73722C311.966 6.59233 311.818 6.47301 311.631 6.37926C311.443 6.28551 311.203 6.23864 310.911 6.23864C310.51 6.23864 310.176 6.33097 309.909 6.51562C309.645 6.69744 309.513 6.92898 309.513 7.21023C309.513 7.46023 309.604 7.65767 309.786 7.80256C309.968 7.94744 310.252 8.06818 310.638 8.16477L311.61 8.40341C312.195 8.54545 312.631 8.76278 312.918 9.0554C313.205 9.34517 313.348 9.71875 313.348 10.1761C313.348 10.5511 313.24 10.8864 313.024 11.1818C312.811 11.4773 312.513 11.7102 312.129 11.8807C311.746 12.0511 311.3 12.1364 310.791 12.1364C310.124 12.1364 309.571 11.9915 309.134 11.7017C308.696 11.4119 308.419 10.9886 308.303 10.4318L309.257 10.1932C309.348 10.5455 309.52 10.8097 309.773 10.9858C310.029 11.1619 310.362 11.25 310.774 11.25C311.243 11.25 311.615 11.1506 311.891 10.9517C312.169 10.75 312.308 10.5085 312.308 10.2273C312.308 10 312.229 9.80966 312.07 9.65625C311.911 9.5 311.666 9.38352 311.337 9.30682L310.246 9.05114C309.647 8.90909 309.206 8.68892 308.925 8.39062C308.647 8.08949 308.507 7.71307 308.507 7.26136C308.507 6.89205 308.611 6.56534 308.818 6.28125C309.029 5.99716 309.314 5.77415 309.675 5.61222C310.039 5.45028 310.45 5.36932 310.911 5.36932C311.558 5.36932 312.067 5.51136 312.436 5.79545C312.808 6.07955 313.073 6.45455 313.229 6.92045ZM319.756 6.92045L318.852 7.17614C318.795 7.02557 318.712 6.87926 318.601 6.73722C318.493 6.59233 318.345 6.47301 318.158 6.37926C317.97 6.28551 317.73 6.23864 317.437 6.23864C317.037 6.23864 316.703 6.33097 316.436 6.51562C316.172 6.69744 316.04 6.92898 316.04 7.21023C316.04 7.46023 316.131 7.65767 316.312 7.80256C316.494 7.94744 316.778 8.06818 317.165 8.16477L318.136 8.40341C318.721 8.54545 319.158 8.76278 319.444 9.0554C319.731 9.34517 319.875 9.71875 319.875 10.1761C319.875 10.5511 319.767 10.8864 319.551 11.1818C319.338 11.4773 319.04 11.7102 318.656 11.8807C318.273 12.0511 317.827 12.1364 317.318 12.1364C316.65 12.1364 316.098 11.9915 315.66 11.7017C315.223 11.4119 314.946 10.9886 314.829 10.4318L315.784 10.1932C315.875 10.5455 316.047 10.8097 316.3 10.9858C316.555 11.1619 316.889 11.25 317.301 11.25C317.77 11.25 318.142 11.1506 318.418 10.9517C318.696 10.75 318.835 10.5085 318.835 10.2273C318.835 10 318.756 9.80966 318.596 9.65625C318.437 9.5 318.193 9.38352 317.864 9.30682L316.773 9.05114C316.173 8.90909 315.733 8.68892 315.452 8.39062C315.173 8.08949 315.034 7.71307 315.034 7.26136C315.034 6.89205 315.138 6.56534 315.345 6.28125C315.555 5.99716 315.841 5.77415 316.202 5.61222C316.565 5.45028 316.977 5.36932 317.437 5.36932C318.085 5.36932 318.594 5.51136 318.963 5.79545C319.335 6.07955 319.599 6.45455 319.756 6.92045ZM321.646 12V5.45455H322.652V12H321.646ZM322.157 4.36364C321.961 4.36364 321.792 4.29688 321.65 4.16335C321.511 4.02983 321.441 3.86932 321.441 3.68182C321.441 3.49432 321.511 3.33381 321.65 3.20028C321.792 3.06676 321.961 3 322.157 3C322.353 3 322.521 3.06676 322.66 3.20028C322.802 3.33381 322.873 3.49432 322.873 3.68182C322.873 3.86932 322.802 4.02983 322.66 4.16335C322.521 4.29688 322.353 4.36364 322.157 4.36364ZM324.887 12V3.27273H325.893V6.49432H325.978C326.052 6.38068 326.154 6.2358 326.285 6.05966C326.418 5.88068 326.609 5.72159 326.856 5.58239C327.106 5.44034 327.444 5.36932 327.87 5.36932C328.421 5.36932 328.907 5.5071 329.327 5.78267C329.748 6.05824 330.076 6.44886 330.312 6.95455C330.548 7.46023 330.665 8.05682 330.665 8.74432C330.665 9.4375 330.548 10.0384 330.312 10.5469C330.076 11.0526 329.749 11.4446 329.332 11.723C328.914 11.9986 328.433 12.1364 327.887 12.1364C327.467 12.1364 327.13 12.0668 326.877 11.9276C326.624 11.7855 326.43 11.625 326.293 11.446C326.157 11.2642 326.052 11.1136 325.978 10.9943H325.859V12H324.887ZM325.876 8.72727C325.876 9.22159 325.948 9.65767 326.093 10.0355C326.238 10.4105 326.45 10.7045 326.728 10.9176C327.006 11.1278 327.347 11.233 327.751 11.233C328.171 11.233 328.522 11.1222 328.803 10.9006C329.087 10.6761 329.3 10.375 329.442 9.99716C329.587 9.61648 329.66 9.19318 329.66 8.72727C329.66 8.26705 329.589 7.85227 329.447 7.48295C329.308 7.1108 329.096 6.81676 328.812 6.60085C328.531 6.3821 328.177 6.27273 327.751 6.27273C327.342 6.27273 326.998 6.37642 326.719 6.58381C326.441 6.78835 326.231 7.07528 326.089 7.4446C325.947 7.81108 325.876 8.23864 325.876 8.72727ZM332.461 12V5.45455H333.467V12H332.461ZM332.972 4.36364C332.776 4.36364 332.607 4.29688 332.465 4.16335C332.326 4.02983 332.256 3.86932 332.256 3.68182C332.256 3.49432 332.326 3.33381 332.465 3.20028C332.607 3.06676 332.776 3 332.972 3C333.168 3 333.336 3.06676 333.475 3.20028C333.617 3.33381 333.688 3.49432 333.688 3.68182C333.688 3.86932 333.617 4.02983 333.475 4.16335C333.336 4.29688 333.168 4.36364 332.972 4.36364ZM336.571 3.27273V12H335.566V3.27273H336.571ZM338.671 12V5.45455H339.676V12H338.671ZM339.182 4.36364C338.986 4.36364 338.817 4.29688 338.675 4.16335C338.536 4.02983 338.466 3.86932 338.466 3.68182C338.466 3.49432 338.536 3.33381 338.675 3.20028C338.817 3.06676 338.986 3 339.182 3C339.378 3 339.546 3.06676 339.685 3.20028C339.827 3.33381 339.898 3.49432 339.898 3.68182C339.898 3.86932 339.827 4.02983 339.685 4.16335C339.546 4.29688 339.378 4.36364 339.182 4.36364ZM344.622 5.45455V6.30682H341.23V5.45455H344.622ZM342.219 3.88636H343.224V10.125C343.224 10.4091 343.265 10.6222 343.348 10.7642C343.433 10.9034 343.541 10.9972 343.672 11.0455C343.805 11.0909 343.946 11.1136 344.094 11.1136C344.204 11.1136 344.295 11.108 344.366 11.0966C344.437 11.0824 344.494 11.071 344.537 11.0625L344.741 11.9659C344.673 11.9915 344.578 12.017 344.456 12.0426C344.334 12.071 344.179 12.0852 343.991 12.0852C343.707 12.0852 343.429 12.0241 343.156 11.902C342.886 11.7798 342.662 11.5938 342.483 11.3438C342.307 11.0938 342.219 10.7784 342.219 10.3977V3.88636ZM347.04 14.4545C346.869 14.4545 346.717 14.4403 346.584 14.4119C346.45 14.3864 346.358 14.3608 346.307 14.3352L346.562 13.4489C346.807 13.5114 347.023 13.5341 347.21 13.517C347.398 13.5 347.564 13.4162 347.709 13.2656C347.856 13.1179 347.991 12.8778 348.113 12.5455L348.301 12.0341L345.881 5.45455H346.971L348.778 10.6705H348.846L350.653 5.45455H351.744L348.966 12.9545C348.841 13.2926 348.686 13.5724 348.501 13.794C348.317 14.0185 348.102 14.1847 347.858 14.2926C347.616 14.4006 347.344 14.4545 347.04 14.4545ZM372.955 0.460227V14.8125H372.103V0.460227H372.955ZM393.969 12V3.27273H395.026V11.0625H399.083V12H393.969ZM403.585 12.1364C402.954 12.1364 402.41 11.9972 401.952 11.7188C401.498 11.4375 401.147 11.0455 400.9 10.5426C400.656 10.0369 400.533 9.44886 400.533 8.77841C400.533 8.10795 400.656 7.51705 400.9 7.00568C401.147 6.49148 401.491 6.09091 401.931 5.80398C402.374 5.5142 402.891 5.36932 403.482 5.36932C403.823 5.36932 404.16 5.42614 404.492 5.53977C404.825 5.65341 405.127 5.83807 405.4 6.09375C405.673 6.34659 405.89 6.68182 406.052 7.09943C406.214 7.51705 406.295 8.03125 406.295 8.64205V9.06818H401.249V8.19886H405.272C405.272 7.82955 405.198 7.5 405.05 7.21023C404.906 6.92045 404.698 6.69176 404.428 6.52415C404.161 6.35653 403.846 6.27273 403.482 6.27273C403.082 6.27273 402.735 6.37216 402.442 6.57102C402.153 6.76705 401.93 7.02273 401.773 7.33807C401.617 7.65341 401.539 7.99148 401.539 8.35227V8.93182C401.539 9.42614 401.624 9.84517 401.795 10.1889C401.968 10.5298 402.208 10.7898 402.515 10.9688C402.822 11.1449 403.178 11.233 403.585 11.233C403.849 11.233 404.087 11.196 404.3 11.1222C404.516 11.0455 404.702 10.9318 404.859 10.7812C405.015 10.6278 405.136 10.4375 405.221 10.2102L406.192 10.483C406.09 10.8125 405.918 11.1023 405.677 11.3523C405.435 11.5994 405.137 11.7926 404.782 11.9318C404.427 12.0682 404.028 12.1364 403.585 12.1364ZM410.724 14.5909C410.238 14.5909 409.82 14.5284 409.471 14.4034C409.122 14.2812 408.83 14.1193 408.597 13.9176C408.367 13.7188 408.184 13.5057 408.048 13.2784L408.849 12.7159C408.94 12.8352 409.055 12.9716 409.194 13.125C409.333 13.2812 409.524 13.4162 409.765 13.5298C410.009 13.6463 410.329 13.7045 410.724 13.7045C411.252 13.7045 411.688 13.5767 412.032 13.321C412.376 13.0653 412.548 12.6648 412.548 12.1193V10.7898H412.462C412.389 10.9091 412.283 11.0568 412.147 11.233C412.014 11.4062 411.82 11.5611 411.568 11.6974C411.318 11.831 410.979 11.8977 410.553 11.8977C410.025 11.8977 409.55 11.7727 409.13 11.5227C408.712 11.2727 408.381 10.9091 408.137 10.4318C407.896 9.95455 407.775 9.375 407.775 8.69318C407.775 8.02273 407.893 7.43892 408.129 6.94176C408.364 6.44176 408.693 6.0554 409.113 5.78267C409.533 5.5071 410.019 5.36932 410.57 5.36932C410.997 5.36932 411.335 5.44034 411.585 5.58239C411.837 5.72159 412.031 5.88068 412.164 6.05966C412.3 6.2358 412.406 6.38068 412.479 6.49432H412.582V5.45455H413.553V12.1875C413.553 12.75 413.425 13.2074 413.17 13.5597C412.917 13.9148 412.576 14.1747 412.147 14.3395C411.721 14.5071 411.247 14.5909 410.724 14.5909ZM410.69 10.9943C411.093 10.9943 411.434 10.902 411.712 10.7173C411.991 10.5327 412.202 10.267 412.347 9.92045C412.492 9.57386 412.565 9.15909 412.565 8.67614C412.565 8.20455 412.494 7.78835 412.352 7.42756C412.21 7.06676 411.999 6.78409 411.721 6.57955C411.443 6.375 411.099 6.27273 410.69 6.27273C410.264 6.27273 409.908 6.38068 409.624 6.59659C409.343 6.8125 409.131 7.10227 408.989 7.46591C408.85 7.82955 408.781 8.23295 408.781 8.67614C408.781 9.13068 408.852 9.53267 408.994 9.8821C409.139 10.2287 409.352 10.5014 409.633 10.7003C409.917 10.8963 410.269 10.9943 410.69 10.9943ZM417.578 12.1534C417.163 12.1534 416.786 12.0753 416.448 11.919C416.11 11.7599 415.842 11.5312 415.643 11.233C415.444 10.9318 415.345 10.5682 415.345 10.142C415.345 9.76705 415.418 9.46307 415.566 9.23011C415.714 8.99432 415.911 8.80966 416.158 8.67614C416.406 8.54261 416.678 8.44318 416.977 8.37784C417.278 8.30966 417.58 8.25568 417.884 8.21591C418.282 8.16477 418.605 8.12642 418.852 8.10085C419.102 8.07244 419.283 8.02557 419.397 7.96023C419.514 7.89489 419.572 7.78125 419.572 7.61932V7.58523C419.572 7.16477 419.457 6.83807 419.227 6.60511C418.999 6.37216 418.654 6.25568 418.191 6.25568C417.711 6.25568 417.335 6.3608 417.062 6.57102C416.789 6.78125 416.597 7.00568 416.487 7.24432L415.532 6.90341C415.703 6.50568 415.93 6.19602 416.214 5.97443C416.501 5.75 416.813 5.59375 417.151 5.50568C417.492 5.41477 417.828 5.36932 418.157 5.36932C418.367 5.36932 418.609 5.39489 418.881 5.44602C419.157 5.49432 419.423 5.59517 419.678 5.74858C419.937 5.90199 420.151 6.13352 420.322 6.44318C420.492 6.75284 420.578 7.16761 420.578 7.6875V12H419.572V11.1136H419.521C419.453 11.2557 419.339 11.4077 419.18 11.5696C419.021 11.7315 418.809 11.8693 418.545 11.983C418.281 12.0966 417.958 12.1534 417.578 12.1534ZM417.731 11.25C418.129 11.25 418.464 11.1719 418.737 11.0156C419.012 10.8594 419.22 10.6577 419.359 10.4105C419.501 10.1634 419.572 9.90341 419.572 9.63068V8.71023C419.529 8.76136 419.435 8.80824 419.291 8.85085C419.149 8.89062 418.984 8.92614 418.796 8.95739C418.612 8.9858 418.431 9.01136 418.255 9.03409C418.082 9.05398 417.941 9.07102 417.833 9.08523C417.572 9.11932 417.328 9.17472 417.1 9.25142C416.876 9.32528 416.694 9.4375 416.555 9.58807C416.418 9.7358 416.35 9.9375 416.35 10.1932C416.35 10.5426 416.48 10.8068 416.738 10.9858C416.999 11.1619 417.33 11.25 417.731 11.25ZM423.676 3.27273V12H422.67V3.27273H423.676ZM449.034 0.460227V14.8125H448.182V0.460227H449.034Z" fill="#92989F"/>
<path d="M930.85 6H929.793C929.73 5.69602 929.621 5.42898 929.465 5.19886C929.311 4.96875 929.124 4.77557 928.902 4.61932C928.684 4.46023 928.441 4.34091 928.174 4.26136C927.907 4.18182 927.628 4.14205 927.338 4.14205C926.81 4.14205 926.331 4.27557 925.902 4.54261C925.476 4.80966 925.137 5.20312 924.884 5.72301C924.634 6.2429 924.509 6.88068 924.509 7.63636C924.509 8.39205 924.634 9.02983 924.884 9.54972C925.137 10.0696 925.476 10.4631 925.902 10.7301C926.331 10.9972 926.81 11.1307 927.338 11.1307C927.628 11.1307 927.907 11.0909 928.174 11.0114C928.441 10.9318 928.684 10.8139 928.902 10.6577C929.124 10.4986 929.311 10.304 929.465 10.0739C929.621 9.84091 929.73 9.57386 929.793 9.27273H930.85C930.77 9.71875 930.625 10.1179 930.415 10.4702C930.205 10.8224 929.943 11.1222 929.631 11.3693C929.318 11.6136 928.968 11.7997 928.578 11.9276C928.192 12.0554 927.779 12.1193 927.338 12.1193C926.594 12.1193 925.932 11.9375 925.353 11.5739C924.773 11.2102 924.317 10.6932 923.985 10.0227C923.652 9.35227 923.486 8.55682 923.486 7.63636C923.486 6.71591 923.652 5.92045 923.985 5.25C924.317 4.57955 924.773 4.0625 925.353 3.69886C925.932 3.33523 926.594 3.15341 927.338 3.15341C927.779 3.15341 928.192 3.21733 928.578 3.34517C928.968 3.47301 929.318 3.66051 929.631 3.90767C929.943 4.15199 930.205 4.45028 930.415 4.80256C930.625 5.15199 930.77 5.55114 930.85 6ZM935.337 12.1364C934.746 12.1364 934.228 11.9957 933.782 11.7145C933.339 11.4332 932.992 11.0398 932.742 10.5341C932.495 10.0284 932.371 9.4375 932.371 8.76136C932.371 8.07955 932.495 7.48437 932.742 6.97585C932.992 6.46733 933.339 6.07244 933.782 5.79119C934.228 5.50994 934.746 5.36932 935.337 5.36932C935.928 5.36932 936.445 5.50994 936.888 5.79119C937.335 6.07244 937.681 6.46733 937.928 6.97585C938.178 7.48437 938.303 8.07955 938.303 8.76136C938.303 9.4375 938.178 10.0284 937.928 10.5341C937.681 11.0398 937.335 11.4332 936.888 11.7145C936.445 11.9957 935.928 12.1364 935.337 12.1364ZM935.337 11.233C935.786 11.233 936.156 11.1179 936.445 10.8878C936.735 10.6577 936.95 10.3551 937.089 9.98011C937.228 9.60511 937.298 9.19886 937.298 8.76136C937.298 8.32386 937.228 7.91619 937.089 7.53835C936.95 7.16051 936.735 6.85511 936.445 6.62216C936.156 6.3892 935.786 6.27273 935.337 6.27273C934.888 6.27273 934.519 6.3892 934.229 6.62216C933.94 6.85511 933.725 7.16051 933.586 7.53835C933.447 7.91619 933.377 8.32386 933.377 8.76136C933.377 9.19886 933.447 9.60511 933.586 9.98011C933.725 10.3551 933.94 10.6577 934.229 10.8878C934.519 11.1179 934.888 11.233 935.337 11.233ZM940.096 14.4545V5.45455H941.067V6.49432H941.186C941.26 6.38068 941.363 6.2358 941.493 6.05966C941.627 5.88068 941.817 5.72159 942.064 5.58239C942.314 5.44034 942.652 5.36932 943.079 5.36932C943.63 5.36932 944.115 5.5071 944.536 5.78267C944.956 6.05824 945.284 6.44886 945.52 6.95455C945.756 7.46023 945.874 8.05682 945.874 8.74432C945.874 9.4375 945.756 10.0384 945.52 10.5469C945.284 11.0526 944.958 11.4446 944.54 11.723C944.123 11.9986 943.641 12.1364 943.096 12.1364C942.675 12.1364 942.338 12.0668 942.086 11.9276C941.833 11.7855 941.638 11.625 941.502 11.446C941.365 11.2642 941.26 11.1136 941.186 10.9943H941.101V14.4545H940.096ZM941.084 8.72727C941.084 9.22159 941.157 9.65767 941.302 10.0355C941.446 10.4105 941.658 10.7045 941.936 10.9176C942.215 11.1278 942.556 11.233 942.959 11.233C943.38 11.233 943.731 11.1222 944.012 10.9006C944.296 10.6761 944.509 10.375 944.651 9.99716C944.796 9.61648 944.868 9.19318 944.868 8.72727C944.868 8.26705 944.797 7.85227 944.655 7.48295C944.516 7.1108 944.304 6.81676 944.02 6.60085C943.739 6.3821 943.385 6.27273 942.959 6.27273C942.55 6.27273 942.206 6.37642 941.928 6.58381C941.65 6.78835 941.439 7.07528 941.297 7.4446C941.155 7.81108 941.084 8.23864 941.084 8.72727ZM948.079 14.4545C947.908 14.4545 947.756 14.4403 947.623 14.4119C947.489 14.3864 947.397 14.3608 947.346 14.3352L947.601 13.4489C947.846 13.5114 948.062 13.5341 948.249 13.517C948.437 13.5 948.603 13.4162 948.748 13.2656C948.895 13.1179 949.03 12.8778 949.152 12.5455L949.34 12.0341L946.919 5.45455H948.01L949.817 10.6705H949.885L951.692 5.45455H952.783L950.005 12.9545C949.88 13.2926 949.725 13.5724 949.54 13.794C949.356 14.0185 949.141 14.1847 948.897 14.2926C948.655 14.4006 948.383 14.4545 948.079 14.4545ZM954.368 12V5.45455H955.339V6.44318H955.407C955.527 6.11932 955.743 5.85653 956.055 5.65483C956.368 5.45312 956.72 5.35227 957.112 5.35227C957.186 5.35227 957.278 5.35369 957.389 5.35653C957.5 5.35937 957.584 5.36364 957.64 5.36932V6.39205C957.606 6.38352 957.528 6.37074 957.406 6.35369C957.287 6.33381 957.16 6.32386 957.027 6.32386C956.709 6.32386 956.424 6.39062 956.174 6.52415C955.927 6.65483 955.731 6.83665 955.586 7.0696C955.444 7.29972 955.373 7.5625 955.373 7.85795V12H954.368ZM959.09 12V5.45455H960.095V12H959.09ZM959.601 4.36364C959.405 4.36364 959.236 4.29688 959.094 4.16335C958.955 4.02983 958.885 3.86932 958.885 3.68182C958.885 3.49432 958.955 3.33381 959.094 3.20028C959.236 3.06676 959.405 3 959.601 3C959.797 3 959.965 3.06676 960.104 3.20028C960.246 3.33381 960.317 3.49432 960.317 3.68182C960.317 3.86932 960.246 4.02983 960.104 4.16335C959.965 4.29688 959.797 4.36364 959.601 4.36364ZM964.836 14.5909C964.351 14.5909 963.933 14.5284 963.584 14.4034C963.234 14.2812 962.943 14.1193 962.71 13.9176C962.48 13.7188 962.297 13.5057 962.16 13.2784L962.961 12.7159C963.052 12.8352 963.167 12.9716 963.307 13.125C963.446 13.2812 963.636 13.4162 963.878 13.5298C964.122 13.6463 964.442 13.7045 964.836 13.7045C965.365 13.7045 965.801 13.5767 966.145 13.321C966.488 13.0653 966.66 12.6648 966.66 12.1193V10.7898H966.575C966.501 10.9091 966.396 11.0568 966.26 11.233C966.126 11.4062 965.933 11.5611 965.68 11.6974C965.43 11.831 965.092 11.8977 964.666 11.8977C964.138 11.8977 963.663 11.7727 963.243 11.5227C962.825 11.2727 962.494 10.9091 962.25 10.4318C962.008 9.95455 961.888 9.375 961.888 8.69318C961.888 8.02273 962.006 7.43892 962.241 6.94176C962.477 6.44176 962.805 6.0554 963.226 5.78267C963.646 5.5071 964.132 5.36932 964.683 5.36932C965.109 5.36932 965.447 5.44034 965.697 5.58239C965.95 5.72159 966.143 5.88068 966.277 6.05966C966.413 6.2358 966.518 6.38068 966.592 6.49432H966.694V5.45455H967.666V12.1875C967.666 12.75 967.538 13.2074 967.283 13.5597C967.03 13.9148 966.689 14.1747 966.26 14.3395C965.834 14.5071 965.359 14.5909 964.836 14.5909ZM964.802 10.9943C965.206 10.9943 965.547 10.902 965.825 10.7173C966.104 10.5327 966.315 10.267 966.46 9.92045C966.605 9.57386 966.677 9.15909 966.677 8.67614C966.677 8.20455 966.606 7.78835 966.464 7.42756C966.322 7.06676 966.112 6.78409 965.834 6.57955C965.555 6.375 965.211 6.27273 964.802 6.27273C964.376 6.27273 964.021 6.38068 963.737 6.59659C963.456 6.8125 963.244 7.10227 963.102 7.46591C962.963 7.82955 962.893 8.23295 962.893 8.67614C962.893 9.13068 962.964 9.53267 963.106 9.8821C963.251 10.2287 963.464 10.5014 963.746 10.7003C964.03 10.8963 964.382 10.9943 964.802 10.9943ZM970.77 8.0625V12H969.764V3.27273H970.77V6.47727H970.855C971.008 6.1392 971.239 5.87074 971.545 5.67188C971.855 5.47017 972.267 5.36932 972.781 5.36932C973.227 5.36932 973.618 5.45881 973.953 5.63778C974.288 5.81392 974.548 6.08523 974.733 6.4517C974.92 6.81534 975.014 7.27841 975.014 7.84091V12H974.008V7.90909C974.008 7.3892 973.873 6.98722 973.604 6.70312C973.337 6.41619 972.966 6.27273 972.491 6.27273C972.162 6.27273 971.866 6.34233 971.605 6.48153C971.346 6.62074 971.142 6.82386 970.991 7.09091C970.844 7.35795 970.77 7.68182 970.77 8.0625ZM979.958 5.45455V6.30682H976.566V5.45455H979.958ZM977.554 3.88636H978.56V10.125C978.56 10.4091 978.601 10.6222 978.684 10.7642C978.769 10.9034 978.877 10.9972 979.007 11.0455C979.141 11.0909 979.282 11.1136 979.429 11.1136C979.54 11.1136 979.631 11.108 979.702 11.0966C979.773 11.0824 979.83 11.071 979.872 11.0625L980.077 11.9659C980.009 11.9915 979.914 12.017 979.791 12.0426C979.669 12.071 979.514 12.0852 979.327 12.0852C979.043 12.0852 978.764 12.0241 978.492 11.902C978.222 11.7798 977.997 11.5938 977.818 11.3438C977.642 11.0938 977.554 10.7784 977.554 10.3977V3.88636ZM985.343 12V11.233L988.223 8.07955C988.561 7.71023 988.84 7.3892 989.059 7.11648C989.277 6.84091 989.439 6.58239 989.544 6.34091C989.652 6.09659 989.706 5.84091 989.706 5.57386C989.706 5.26705 989.632 5.00142 989.485 4.77699C989.34 4.55256 989.141 4.37926 988.888 4.2571C988.635 4.13494 988.351 4.07386 988.036 4.07386C987.701 4.07386 987.408 4.14347 987.158 4.28267C986.911 4.41903 986.719 4.6108 986.583 4.85795C986.449 5.10511 986.382 5.39489 986.382 5.72727H985.377C985.377 5.21591 985.495 4.76705 985.73 4.38068C985.966 3.99432 986.287 3.69318 986.694 3.47727C987.103 3.26136 987.561 3.15341 988.07 3.15341C988.581 3.15341 989.034 3.26136 989.429 3.47727C989.824 3.69318 990.134 3.98437 990.358 4.35085C990.583 4.71733 990.695 5.125 990.695 5.57386C990.695 5.89489 990.637 6.20881 990.52 6.51562C990.407 6.8196 990.208 7.15909 989.924 7.53409C989.642 7.90625 989.252 8.3608 988.752 8.89773L986.792 10.9943V11.0625H990.848V12H985.343ZM995.712 12.1193C995.07 12.1193 994.523 11.9446 994.071 11.5952C993.62 11.2429 993.275 10.733 993.036 10.0653C992.797 9.39489 992.678 8.58523 992.678 7.63636C992.678 6.69318 992.797 5.88778 993.036 5.22017C993.277 4.54972 993.624 4.03835 994.076 3.68608C994.53 3.33097 995.076 3.15341 995.712 3.15341C996.348 3.15341 996.892 3.33097 997.344 3.68608C997.799 4.03835 998.145 4.54972 998.384 5.22017C998.625 5.88778 998.746 6.69318 998.746 7.63636C998.746 8.58523 998.627 9.39489 998.388 10.0653C998.15 10.733 997.804 11.2429 997.353 11.5952C996.901 11.9446 996.354 12.1193 995.712 12.1193ZM995.712 11.1818C996.348 11.1818 996.843 10.875 997.195 10.2614C997.547 9.64773 997.723 8.77273 997.723 7.63636C997.723 6.88068 997.642 6.23722 997.481 5.70597C997.321 5.17472 997.091 4.76989 996.79 4.49148C996.492 4.21307 996.133 4.07386 995.712 4.07386C995.081 4.07386 994.588 4.38494 994.233 5.0071C993.878 5.62642 993.701 6.50284 993.701 7.63636C993.701 8.39205 993.78 9.03409 993.939 9.5625C994.098 10.0909 994.327 10.4929 994.625 10.7685C994.927 11.044 995.289 11.1818 995.712 11.1818ZM1000.62 12V11.233L1003.5 8.07955C1003.84 7.71023 1004.12 7.3892 1004.34 7.11648C1004.56 6.84091 1004.72 6.58239 1004.82 6.34091C1004.93 6.09659 1004.99 5.84091 1004.99 5.57386C1004.99 5.26705 1004.91 5.00142 1004.76 4.77699C1004.62 4.55256 1004.42 4.37926 1004.17 4.2571C1003.92 4.13494 1003.63 4.07386 1003.32 4.07386C1002.98 4.07386 1002.69 4.14347 1002.44 4.28267C1002.19 4.41903 1002 4.6108 1001.86 4.85795C1001.73 5.10511 1001.66 5.39489 1001.66 5.72727H1000.66C1000.66 5.21591 1000.77 4.76705 1001.01 4.38068C1001.25 3.99432 1001.57 3.69318 1001.97 3.47727C1002.38 3.26136 1002.84 3.15341 1003.35 3.15341C1003.86 3.15341 1004.31 3.26136 1004.71 3.47727C1005.1 3.69318 1005.41 3.98437 1005.64 4.35085C1005.86 4.71733 1005.97 5.125 1005.97 5.57386C1005.97 5.89489 1005.92 6.20881 1005.8 6.51562C1005.69 6.8196 1005.49 7.15909 1005.2 7.53409C1004.92 7.90625 1004.53 8.3608 1004.03 8.89773L1002.07 10.9943V11.0625H1006.13V12H1000.62ZM1011.09 12.1193C1010.53 12.1193 1010.03 12.0227 1009.59 11.8295C1009.15 11.6364 1008.8 11.3679 1008.55 11.0241C1008.29 10.6776 1008.15 10.2756 1008.13 9.81818H1009.2C1009.22 10.0994 1009.32 10.3423 1009.49 10.5469C1009.66 10.7486 1009.89 10.9048 1010.16 11.0156C1010.44 11.1264 1010.74 11.1818 1011.08 11.1818C1011.45 11.1818 1011.78 11.1165 1012.07 10.9858C1012.36 10.8551 1012.59 10.6733 1012.76 10.4403C1012.92 10.2074 1013 9.9375 1013 9.63068C1013 9.30966 1012.92 9.02699 1012.76 8.78267C1012.61 8.53551 1012.37 8.34233 1012.07 8.20312C1011.76 8.06392 1011.38 7.99432 1010.94 7.99432H1010.24V7.05682H1010.94C1011.29 7.05682 1011.59 6.99432 1011.85 6.86932C1012.12 6.74432 1012.32 6.56818 1012.47 6.34091C1012.62 6.11364 1012.7 5.84659 1012.7 5.53977C1012.7 5.24432 1012.63 4.98722 1012.5 4.76847C1012.37 4.54972 1012.19 4.37926 1011.95 4.2571C1011.71 4.13494 1011.43 4.07386 1011.11 4.07386C1010.81 4.07386 1010.53 4.12926 1010.26 4.24006C1009.99 4.34801 1009.78 4.50568 1009.61 4.71307C1009.44 4.91761 1009.35 5.16477 1009.34 5.45455H1008.32C1008.33 4.99716 1008.47 4.59659 1008.73 4.25284C1008.99 3.90625 1009.33 3.63636 1009.74 3.44318C1010.16 3.25 1010.63 3.15341 1011.13 3.15341C1011.67 3.15341 1012.13 3.26278 1012.52 3.48153C1012.9 3.69744 1013.2 3.98295 1013.41 4.33807C1013.62 4.69318 1013.72 5.0767 1013.72 5.48864C1013.72 5.98011 1013.59 6.39915 1013.33 6.74574C1013.08 7.09233 1012.73 7.33239 1012.29 7.46591V7.53409C1012.84 7.625 1013.27 7.85937 1013.58 8.23722C1013.89 8.61222 1014.04 9.0767 1014.04 9.63068C1014.04 10.1051 1013.91 10.5312 1013.66 10.9091C1013.4 11.2841 1013.05 11.5795 1012.61 11.7955C1012.16 12.0114 1011.66 12.1193 1011.09 12.1193ZM1023.44 7.16761V8.10511H1019.62V7.16761H1023.44ZM1034.01 5.45455C1033.96 5.02273 1033.75 4.6875 1033.39 4.44886C1033.02 4.21023 1032.58 4.09091 1032.05 4.09091C1031.66 4.09091 1031.33 4.15341 1031.04 4.27841C1030.75 4.40341 1030.52 4.57528 1030.36 4.79403C1030.2 5.01278 1030.12 5.26136 1030.12 5.53977C1030.12 5.77273 1030.18 5.97301 1030.29 6.14062C1030.4 6.3054 1030.55 6.44318 1030.72 6.55398C1030.9 6.66193 1031.09 6.75142 1031.28 6.82244C1031.47 6.89062 1031.65 6.94602 1031.81 6.98864L1032.7 7.22727C1032.93 7.28693 1033.18 7.36932 1033.46 7.47443C1033.74 7.57955 1034.01 7.72301 1034.26 7.90483C1034.52 8.08381 1034.73 8.31392 1034.9 8.59517C1035.07 8.87642 1035.15 9.22159 1035.15 9.63068C1035.15 10.1023 1035.03 10.5284 1034.78 10.9091C1034.54 11.2898 1034.18 11.5923 1033.71 11.8168C1033.24 12.0412 1032.67 12.1534 1032 12.1534C1031.37 12.1534 1030.83 12.0526 1030.38 11.8509C1029.92 11.6491 1029.56 11.3679 1029.3 11.0071C1029.04 10.6463 1028.9 10.2273 1028.86 9.75H1029.95C1029.98 10.0795 1030.09 10.3523 1030.29 10.5682C1030.48 10.7812 1030.73 10.9403 1031.03 11.0455C1031.33 11.1477 1031.65 11.1989 1032 11.1989C1032.4 11.1989 1032.76 11.1335 1033.09 11.0028C1033.41 10.8693 1033.66 10.6847 1033.85 10.4489C1034.04 10.2102 1034.13 9.93182 1034.13 9.61364C1034.13 9.32386 1034.05 9.08807 1033.89 8.90625C1033.72 8.72443 1033.51 8.5767 1033.25 8.46307C1032.98 8.34943 1032.7 8.25 1032.39 8.16477L1031.32 7.85795C1030.64 7.66193 1030.1 7.3821 1029.7 7.01847C1029.3 6.65483 1029.1 6.17898 1029.1 5.59091C1029.1 5.10227 1029.23 4.67614 1029.5 4.3125C1029.76 3.94602 1030.12 3.66193 1030.57 3.46023C1031.02 3.25568 1031.53 3.15341 1032.08 3.15341C1032.65 3.15341 1033.15 3.25426 1033.58 3.45597C1034.02 3.65483 1034.37 3.92756 1034.62 4.27415C1034.88 4.62074 1035.02 5.0142 1035.03 5.45455H1034.01ZM1039.67 12.1364C1039.08 12.1364 1038.56 11.9957 1038.11 11.7145C1037.67 11.4332 1037.32 11.0398 1037.07 10.5341C1036.83 10.0284 1036.7 9.4375 1036.7 8.76136C1036.7 8.07955 1036.83 7.48437 1037.07 6.97585C1037.32 6.46733 1037.67 6.07244 1038.11 5.79119C1038.56 5.50994 1039.08 5.36932 1039.67 5.36932C1040.26 5.36932 1040.78 5.50994 1041.22 5.79119C1041.67 6.07244 1042.01 6.46733 1042.26 6.97585C1042.51 7.48437 1042.64 8.07955 1042.64 8.76136C1042.64 9.4375 1042.51 10.0284 1042.26 10.5341C1042.01 11.0398 1041.67 11.4332 1041.22 11.7145C1040.78 11.9957 1040.26 12.1364 1039.67 12.1364ZM1039.67 11.233C1040.12 11.233 1040.49 11.1179 1040.78 10.8878C1041.07 10.6577 1041.28 10.3551 1041.42 9.98011C1041.56 9.60511 1041.63 9.19886 1041.63 8.76136C1041.63 8.32386 1041.56 7.91619 1041.42 7.53835C1041.28 7.16051 1041.07 6.85511 1040.78 6.62216C1040.49 6.3892 1040.12 6.27273 1039.67 6.27273C1039.22 6.27273 1038.85 6.3892 1038.56 6.62216C1038.27 6.85511 1038.06 7.16051 1037.92 7.53835C1037.78 7.91619 1037.71 8.32386 1037.71 8.76136C1037.71 9.19886 1037.78 9.60511 1037.92 9.98011C1038.06 10.3551 1038.27 10.6577 1038.56 10.8878C1038.85 11.1179 1039.22 11.233 1039.67 11.233ZM1045.43 3.27273V12H1044.43V3.27273H1045.43ZM1047.53 12V5.45455H1048.54V12H1047.53ZM1048.04 4.36364C1047.85 4.36364 1047.68 4.29688 1047.54 4.16335C1047.4 4.02983 1047.33 3.86932 1047.33 3.68182C1047.33 3.49432 1047.4 3.33381 1047.54 3.20028C1047.68 3.06676 1047.85 3 1048.04 3C1048.24 3 1048.41 3.06676 1048.55 3.20028C1048.69 3.33381 1048.76 3.49432 1048.76 3.68182C1048.76 3.86932 1048.69 4.02983 1048.55 4.16335C1048.41 4.29688 1048.24 4.36364 1048.04 4.36364ZM1053.11 12.1364C1052.56 12.1364 1052.08 11.9986 1051.66 11.723C1051.25 11.4446 1050.92 11.0526 1050.68 10.5469C1050.45 10.0384 1050.33 9.4375 1050.33 8.74432C1050.33 8.05682 1050.45 7.46023 1050.68 6.95455C1050.92 6.44886 1051.25 6.05824 1051.67 5.78267C1052.09 5.5071 1052.58 5.36932 1053.13 5.36932C1053.55 5.36932 1053.89 5.44034 1054.14 5.58239C1054.39 5.72159 1054.58 5.88068 1054.71 6.05966C1054.84 6.2358 1054.94 6.38068 1055.02 6.49432H1055.1V3.27273H1056.11V12H1055.14V10.9943H1055.02C1054.94 11.1136 1054.84 11.2642 1054.7 11.446C1054.57 11.625 1054.37 11.7855 1054.12 11.9276C1053.87 12.0668 1053.53 12.1364 1053.11 12.1364ZM1053.25 11.233C1053.65 11.233 1053.99 11.1278 1054.27 10.9176C1054.55 10.7045 1054.76 10.4105 1054.9 10.0355C1055.05 9.65767 1055.12 9.22159 1055.12 8.72727C1055.12 8.23864 1055.05 7.81108 1054.91 7.4446C1054.77 7.07528 1054.56 6.78835 1054.28 6.58381C1054 6.37642 1053.65 6.27273 1053.25 6.27273C1052.82 6.27273 1052.46 6.3821 1052.18 6.60085C1051.9 6.81676 1051.69 7.1108 1051.55 7.48295C1051.41 7.85227 1051.34 8.26705 1051.34 8.72727C1051.34 9.19318 1051.41 9.61648 1051.55 9.99716C1051.69 10.375 1051.91 10.6761 1052.19 10.9006C1052.47 11.1222 1052.83 11.233 1053.25 11.233ZM1060.27 12.1534C1059.86 12.1534 1059.48 12.0753 1059.14 11.919C1058.81 11.7599 1058.54 11.5312 1058.34 11.233C1058.14 10.9318 1058.04 10.5682 1058.04 10.142C1058.04 9.76705 1058.11 9.46307 1058.26 9.23011C1058.41 8.99432 1058.61 8.80966 1058.85 8.67614C1059.1 8.54261 1059.37 8.44318 1059.67 8.37784C1059.97 8.30966 1060.28 8.25568 1060.58 8.21591C1060.98 8.16477 1061.3 8.12642 1061.55 8.10085C1061.8 8.07244 1061.98 8.02557 1062.09 7.96023C1062.21 7.89489 1062.27 7.78125 1062.27 7.61932V7.58523C1062.27 7.16477 1062.15 6.83807 1061.92 6.60511C1061.7 6.37216 1061.35 6.25568 1060.89 6.25568C1060.41 6.25568 1060.03 6.3608 1059.76 6.57102C1059.49 6.78125 1059.29 7.00568 1059.18 7.24432L1058.23 6.90341C1058.4 6.50568 1058.63 6.19602 1058.91 5.97443C1059.2 5.75 1059.51 5.59375 1059.85 5.50568C1060.19 5.41477 1060.52 5.36932 1060.85 5.36932C1061.06 5.36932 1061.31 5.39489 1061.58 5.44602C1061.85 5.49432 1062.12 5.59517 1062.37 5.74858C1062.63 5.90199 1062.85 6.13352 1063.02 6.44318C1063.19 6.75284 1063.27 7.16761 1063.27 7.6875V12H1062.27V11.1136H1062.22C1062.15 11.2557 1062.04 11.4077 1061.88 11.5696C1061.72 11.7315 1061.51 11.8693 1061.24 11.983C1060.98 12.0966 1060.65 12.1534 1060.27 12.1534ZM1060.43 11.25C1060.83 11.25 1061.16 11.1719 1061.43 11.0156C1061.71 10.8594 1061.92 10.6577 1062.06 10.4105C1062.2 10.1634 1062.27 9.90341 1062.27 9.63068V8.71023C1062.23 8.76136 1062.13 8.80824 1061.99 8.85085C1061.84 8.89062 1061.68 8.92614 1061.49 8.95739C1061.31 8.9858 1061.13 9.01136 1060.95 9.03409C1060.78 9.05398 1060.64 9.07102 1060.53 9.08523C1060.27 9.11932 1060.02 9.17472 1059.8 9.25142C1059.57 9.32528 1059.39 9.4375 1059.25 9.58807C1059.11 9.7358 1059.05 9.9375 1059.05 10.1932C1059.05 10.5426 1059.18 10.8068 1059.43 10.9858C1059.7 11.1619 1060.03 11.25 1060.43 11.25ZM1065.37 12V5.45455H1066.34V6.44318H1066.41C1066.53 6.11932 1066.74 5.85653 1067.05 5.65483C1067.37 5.45312 1067.72 5.35227 1068.11 5.35227C1068.18 5.35227 1068.28 5.35369 1068.39 5.35653C1068.5 5.35937 1068.58 5.36364 1068.64 5.36932V6.39205C1068.61 6.38352 1068.53 6.37074 1068.41 6.35369C1068.29 6.33381 1068.16 6.32386 1068.03 6.32386C1067.71 6.32386 1067.42 6.39062 1067.17 6.52415C1066.93 6.65483 1066.73 6.83665 1066.59 7.0696C1066.44 7.29972 1066.37 7.5625 1066.37 7.85795V12H1065.37ZM1070.09 12V5.45455H1071.09V12H1070.09ZM1070.6 4.36364C1070.4 4.36364 1070.23 4.29688 1070.09 4.16335C1069.95 4.02983 1069.88 3.86932 1069.88 3.68182C1069.88 3.49432 1069.95 3.33381 1070.09 3.20028C1070.23 3.06676 1070.4 3 1070.6 3C1070.8 3 1070.96 3.06676 1071.1 3.20028C1071.24 3.33381 1071.32 3.49432 1071.32 3.68182C1071.32 3.86932 1071.24 4.02983 1071.1 4.16335C1070.96 4.29688 1070.8 4.36364 1070.6 4.36364ZM1076.04 5.45455V6.30682H1072.65V5.45455H1076.04ZM1073.64 3.88636H1074.64V10.125C1074.64 10.4091 1074.68 10.6222 1074.77 10.7642C1074.85 10.9034 1074.96 10.9972 1075.09 11.0455C1075.22 11.0909 1075.36 11.1136 1075.51 11.1136C1075.62 11.1136 1075.71 11.108 1075.78 11.0966C1075.86 11.0824 1075.91 11.071 1075.95 11.0625L1076.16 11.9659C1076.09 11.9915 1076 12.017 1075.87 12.0426C1075.75 12.071 1075.6 12.0852 1075.41 12.0852C1075.13 12.0852 1074.85 12.0241 1074.57 11.902C1074.3 11.7798 1074.08 11.5938 1073.9 11.3438C1073.72 11.0938 1073.64 10.7784 1073.64 10.3977V3.88636ZM1078.46 14.4545C1078.29 14.4545 1078.14 14.4403 1078 14.4119C1077.87 14.3864 1077.78 14.3608 1077.72 14.3352L1077.98 13.4489C1078.22 13.5114 1078.44 13.5341 1078.63 13.517C1078.82 13.5 1078.98 13.4162 1079.13 13.2656C1079.27 13.1179 1079.41 12.8778 1079.53 12.5455L1079.72 12.0341L1077.3 5.45455H1078.39L1080.2 10.6705H1080.26L1082.07 5.45455H1083.16L1080.38 12.9545C1080.26 13.2926 1080.1 13.5724 1079.92 13.794C1079.73 14.0185 1079.52 14.1847 1079.28 14.2926C1079.03 14.4006 1078.76 14.4545 1078.46 14.4545ZM1093.29 5.45455C1093.24 5.02273 1093.03 4.6875 1092.67 4.44886C1092.3 4.21023 1091.86 4.09091 1091.33 4.09091C1090.94 4.09091 1090.6 4.15341 1090.31 4.27841C1090.03 4.40341 1089.8 4.57528 1089.64 4.79403C1089.48 5.01278 1089.4 5.26136 1089.4 5.53977C1089.4 5.77273 1089.46 5.97301 1089.57 6.14062C1089.68 6.3054 1089.83 6.44318 1090 6.55398C1090.18 6.66193 1090.36 6.75142 1090.56 6.82244C1090.75 6.89062 1090.93 6.94602 1091.09 6.98864L1091.98 7.22727C1092.2 7.28693 1092.46 7.36932 1092.73 7.47443C1093.02 7.57955 1093.28 7.72301 1093.54 7.90483C1093.8 8.08381 1094.01 8.31392 1094.18 8.59517C1094.35 8.87642 1094.43 9.22159 1094.43 9.63068C1094.43 10.1023 1094.31 10.5284 1094.06 10.9091C1093.82 11.2898 1093.46 11.5923 1092.99 11.8168C1092.52 12.0412 1091.95 12.1534 1091.28 12.1534C1090.65 12.1534 1090.11 12.0526 1089.65 11.8509C1089.2 11.6491 1088.84 11.3679 1088.58 11.0071C1088.32 10.6463 1088.17 10.2273 1088.14 9.75H1089.23C1089.26 10.0795 1089.37 10.3523 1089.56 10.5682C1089.76 10.7812 1090.01 10.9403 1090.31 11.0455C1090.61 11.1477 1090.93 11.1989 1091.28 11.1989C1091.68 11.1989 1092.04 11.1335 1092.36 11.0028C1092.68 10.8693 1092.94 10.6847 1093.13 10.4489C1093.31 10.2102 1093.41 9.93182 1093.41 9.61364C1093.41 9.32386 1093.33 9.08807 1093.16 8.90625C1093 8.72443 1092.79 8.5767 1092.53 8.46307C1092.26 8.34943 1091.98 8.25 1091.67 8.16477L1090.59 7.85795C1089.91 7.66193 1089.37 7.3821 1088.98 7.01847C1088.58 6.65483 1088.38 6.17898 1088.38 5.59091C1088.38 5.10227 1088.51 4.67614 1088.78 4.3125C1089.04 3.94602 1089.4 3.66193 1089.85 3.46023C1090.3 3.25568 1090.81 3.15341 1091.36 3.15341C1091.92 3.15341 1092.42 3.25426 1092.86 3.45597C1093.3 3.65483 1093.65 3.92756 1093.9 4.27415C1094.16 4.62074 1094.3 5.0142 1094.31 5.45455H1093.29ZM1098.95 12.1364C1098.36 12.1364 1097.84 11.9957 1097.39 11.7145C1096.95 11.4332 1096.6 11.0398 1096.35 10.5341C1096.11 10.0284 1095.98 9.4375 1095.98 8.76136C1095.98 8.07955 1096.11 7.48437 1096.35 6.97585C1096.6 6.46733 1096.95 6.07244 1097.39 5.79119C1097.84 5.50994 1098.36 5.36932 1098.95 5.36932C1099.54 5.36932 1100.06 5.50994 1100.5 5.79119C1100.94 6.07244 1101.29 6.46733 1101.54 6.97585C1101.79 7.48437 1101.91 8.07955 1101.91 8.76136C1101.91 9.4375 1101.79 10.0284 1101.54 10.5341C1101.29 11.0398 1100.94 11.4332 1100.5 11.7145C1100.06 11.9957 1099.54 12.1364 1098.95 12.1364ZM1098.95 11.233C1099.4 11.233 1099.77 11.1179 1100.06 10.8878C1100.35 10.6577 1100.56 10.3551 1100.7 9.98011C1100.84 9.60511 1100.91 9.19886 1100.91 8.76136C1100.91 8.32386 1100.84 7.91619 1100.7 7.53835C1100.56 7.16051 1100.35 6.85511 1100.06 6.62216C1099.77 6.3892 1099.4 6.27273 1098.95 6.27273C1098.5 6.27273 1098.13 6.3892 1097.84 6.62216C1097.55 6.85511 1097.34 7.16051 1097.2 7.53835C1097.06 7.91619 1096.99 8.32386 1096.99 8.76136C1096.99 9.19886 1097.06 9.60511 1097.2 9.98011C1097.34 10.3551 1097.55 10.6577 1097.84 10.8878C1098.13 11.1179 1098.5 11.233 1098.95 11.233ZM1104.71 3.27273V12H1103.71V3.27273H1104.71ZM1108.74 12.1534C1108.32 12.1534 1107.95 12.0753 1107.61 11.919C1107.27 11.7599 1107 11.5312 1106.8 11.233C1106.6 10.9318 1106.5 10.5682 1106.5 10.142C1106.5 9.76705 1106.58 9.46307 1106.73 9.23011C1106.87 8.99432 1107.07 8.80966 1107.32 8.67614C1107.56 8.54261 1107.84 8.44318 1108.14 8.37784C1108.44 8.30966 1108.74 8.25568 1109.04 8.21591C1109.44 8.16477 1109.76 8.12642 1110.01 8.10085C1110.26 8.07244 1110.44 8.02557 1110.56 7.96023C1110.67 7.89489 1110.73 7.78125 1110.73 7.61932V7.58523C1110.73 7.16477 1110.62 6.83807 1110.39 6.60511C1110.16 6.37216 1109.81 6.25568 1109.35 6.25568C1108.87 6.25568 1108.49 6.3608 1108.22 6.57102C1107.95 6.78125 1107.76 7.00568 1107.65 7.24432L1106.69 6.90341C1106.86 6.50568 1107.09 6.19602 1107.37 5.97443C1107.66 5.75 1107.97 5.59375 1108.31 5.50568C1108.65 5.41477 1108.99 5.36932 1109.32 5.36932C1109.53 5.36932 1109.77 5.39489 1110.04 5.44602C1110.32 5.49432 1110.58 5.59517 1110.84 5.74858C1111.1 5.90199 1111.31 6.13352 1111.48 6.44318C1111.65 6.75284 1111.74 7.16761 1111.74 7.6875V12H1110.73V11.1136H1110.68C1110.61 11.2557 1110.5 11.4077 1110.34 11.5696C1110.18 11.7315 1109.97 11.8693 1109.7 11.983C1109.44 12.0966 1109.12 12.1534 1108.74 12.1534ZM1108.89 11.25C1109.29 11.25 1109.62 11.1719 1109.9 11.0156C1110.17 10.8594 1110.38 10.6577 1110.52 10.4105C1110.66 10.1634 1110.73 9.90341 1110.73 9.63068V8.71023C1110.69 8.76136 1110.59 8.80824 1110.45 8.85085C1110.31 8.89062 1110.14 8.92614 1109.96 8.95739C1109.77 8.9858 1109.59 9.01136 1109.41 9.03409C1109.24 9.05398 1109.1 9.07102 1108.99 9.08523C1108.73 9.11932 1108.49 9.17472 1108.26 9.25142C1108.03 9.32528 1107.85 9.4375 1107.71 9.58807C1107.58 9.7358 1107.51 9.9375 1107.51 10.1932C1107.51 10.5426 1107.64 10.8068 1107.9 10.9858C1108.16 11.1619 1108.49 11.25 1108.89 11.25ZM1113.83 12V5.45455H1114.8V6.44318H1114.87C1114.99 6.11932 1115.2 5.85653 1115.52 5.65483C1115.83 5.45312 1116.18 5.35227 1116.57 5.35227C1116.65 5.35227 1116.74 5.35369 1116.85 5.35653C1116.96 5.35937 1117.05 5.36364 1117.1 5.36932V6.39205C1117.07 6.38352 1116.99 6.37074 1116.87 6.35369C1116.75 6.33381 1116.62 6.32386 1116.49 6.32386C1116.17 6.32386 1115.89 6.39062 1115.64 6.52415C1115.39 6.65483 1115.19 6.83665 1115.05 7.0696C1114.91 7.29972 1114.84 7.5625 1114.84 7.85795V12H1113.83ZM1122.32 12V3.27273H1123.38V11.0625H1127.43V12H1122.32ZM1131.77 5.45455V6.30682H1128.38V5.45455H1131.77ZM1129.36 3.88636H1130.37V10.125C1130.37 10.4091 1130.41 10.6222 1130.49 10.7642C1130.58 10.9034 1130.69 10.9972 1130.82 11.0455C1130.95 11.0909 1131.09 11.1136 1131.24 11.1136C1131.35 11.1136 1131.44 11.108 1131.51 11.0966C1131.58 11.0824 1131.64 11.071 1131.68 11.0625L1131.89 11.9659C1131.82 11.9915 1131.72 12.017 1131.6 12.0426C1131.48 12.071 1131.32 12.0852 1131.14 12.0852C1130.85 12.0852 1130.57 12.0241 1130.3 11.902C1130.03 11.7798 1129.81 11.5938 1129.63 11.3438C1129.45 11.0938 1129.36 10.7784 1129.36 10.3977V3.88636ZM1135.94 12.1364C1135.39 12.1364 1134.91 11.9986 1134.49 11.723C1134.08 11.4446 1133.75 11.0526 1133.51 10.5469C1133.28 10.0384 1133.16 9.4375 1133.16 8.74432C1133.16 8.05682 1133.28 7.46023 1133.51 6.95455C1133.75 6.44886 1134.08 6.05824 1134.5 5.78267C1134.92 5.5071 1135.4 5.36932 1135.96 5.36932C1136.38 5.36932 1136.72 5.44034 1136.97 5.58239C1137.22 5.72159 1137.41 5.88068 1137.54 6.05966C1137.67 6.2358 1137.77 6.38068 1137.85 6.49432H1137.93V3.27273H1138.94V12H1137.97V10.9943H1137.85C1137.77 11.1136 1137.67 11.2642 1137.53 11.446C1137.4 11.625 1137.2 11.7855 1136.95 11.9276C1136.7 12.0668 1136.36 12.1364 1135.94 12.1364ZM1136.08 11.233C1136.48 11.233 1136.82 11.1278 1137.1 10.9176C1137.38 10.7045 1137.59 10.4105 1137.73 10.0355C1137.88 9.65767 1137.95 9.22159 1137.95 8.72727C1137.95 8.23864 1137.88 7.81108 1137.74 7.4446C1137.6 7.07528 1137.38 6.78835 1137.11 6.58381C1136.83 6.37642 1136.48 6.27273 1136.08 6.27273C1135.65 6.27273 1135.29 6.3821 1135.01 6.60085C1134.73 6.81676 1134.52 7.1108 1134.38 7.48295C1134.24 7.85227 1134.17 8.26705 1134.17 8.72727C1134.17 9.19318 1134.24 9.61648 1134.38 9.99716C1134.52 10.375 1134.74 10.6761 1135.02 10.9006C1135.3 11.1222 1135.65 11.233 1136.08 11.233Z" fill="#92989F"/>
</svg>
